<svg width="109" height="70" viewBox="0 0 109 70" fill="none" xmlns="http://www.w3.org/2000/svg">
<g clip-path="url(#clip0_1097_19805)">
<path d="M84.2193 12H24.7807C11.0947 12 0 22.9795 0 36.5235V45.4765C0 59.0205 11.0947 70 24.7807 70H84.2193C97.9053 70 109 59.0205 109 45.4765V36.5235C109 22.9795 97.9053 12 84.2193 12Z" fill="white" stroke="#F5F5F5"/>
</g>
<g clip-path="url(#clip1_1097_19805)">
<path d="M100.929 4.3776C100.929 6.2784 97.9744 7.8336 94.2671 7.8336C90.5597 7.8336 87.6055 6.2784 87.6055 4.3776C87.6055 2.4768 90.5597 0 94.2671 0C97.9744 0 100.929 2.4768 100.929 4.3776Z" fill="#CFD0D0"/>
<path d="M92.2982 10.656H96.2372C100.118 10.656 103.246 13.7664 103.246 17.6256V34.272C103.246 35.1936 102.493 36 101.509 36H87.0269C86.1 36 85.2891 35.2512 85.2891 34.272V17.6256C85.2891 13.7664 88.4171 10.656 92.2982 10.656Z" fill="#AEA8A5"/>
<path d="M95.9469 3.05286H92.5872C89.8359 3.05286 87.6055 5.27066 87.6055 8.00646V11.3473C87.6055 14.0831 89.8359 16.3009 92.5872 16.3009H95.9469C98.6983 16.3009 100.929 14.0831 100.929 11.3473V8.00646C100.929 5.27066 98.6983 3.05286 95.9469 3.05286Z" fill="#CFD0D0"/>
<path d="M103.307 7.25764C104.176 6.62404 102.785 3.80164 100.816 3.80164H87.7243C85.8127 3.80164 84.3645 6.68164 85.2914 7.25764C87.203 8.52484 88.0719 5.52964 94.27 5.52964C99.8889 5.52964 101.395 8.58244 103.249 7.25764H103.307Z" fill="#ACACAB"/>
<path d="M91.7094 21.6H87.7906C86.2494 21.6 85 22.6745 85 24C85 25.3255 86.2494 26.4 87.7906 26.4H91.7094C93.2506 26.4 94.5 25.3255 94.5 24C94.5 22.6745 93.2506 21.6 91.7094 21.6Z" fill="#CFD0D0"/>
<path d="M101.209 19.2H97.2906C95.7494 19.2 94.5 20.2745 94.5 21.6C94.5 22.9254 95.7494 24 97.2906 24H101.209C102.751 24 104 22.9254 104 21.6C104 20.2745 102.751 19.2 101.209 19.2Z" fill="#CFD0D0"/>
</g>
<defs>
<clipPath id="clip0_1097_19805">
<rect width="109" height="58" fill="white" transform="translate(0 12)"/>
</clipPath>
<clipPath id="clip1_1097_19805">
<rect width="19" height="36" fill="white" transform="translate(85)"/>
</clipPath>
</defs>
</svg>
