<svg width="185" height="112" viewBox="0 0 185 112" fill="none" xmlns="http://www.w3.org/2000/svg">
<path d="M0.773438 1.51949V52.8616C0.773438 57.7028 4.69617 61.5882 9.51464 61.5882H18.4721C23.3214 61.5882 27.2133 65.5044 27.2133 70.3148V110.772H175.042C179.891 110.772 183.783 106.856 183.783 102.045V1.48865H0.773438V1.51949Z" fill="white" stroke="#F5F5F5" stroke-miterlimit="10"/>
<path d="M166 103H168V109.491C168 109.771 167.788 110 167.529 110H166.494C166.235 110 166.024 109.771 166.024 109.491V103H166Z" fill="#9E6850"/>
<path d="M167 105C170.866 105 174 101.866 174 98C174 94.134 170.866 91 167 91C163.134 91 160 94.134 160 98C160 101.866 163.134 105 167 105Z" fill="#9BB47A"/>
<g clip-path="url(#clip0_1115_20178)">
<path d="M146.613 101.153H149.39V109.357C149.39 109.71 149.096 110 148.737 110H147.299C146.94 110 146.646 109.71 146.646 109.357V101.153H146.613Z" fill="#9E6850"/>
<path d="M148.016 103.759C152.996 103.759 157.033 99.7833 157.033 94.8794C157.033 89.9754 152.996 86 148.016 86C143.037 86 139 89.9754 139 94.8794C139 99.7833 143.037 103.759 148.016 103.759Z" fill="#9BB47A"/>
</g>
<defs>
<clipPath id="clip0_1115_20178">
<rect width="18" height="24" fill="white" transform="translate(139 86)"/>
</clipPath>
</defs>
</svg>
