<svg width="150" height="177" viewBox="0 0 150 177" fill="none" xmlns="http://www.w3.org/2000/svg">
<path d="M149.101 0.833455H25.5817V21.802C25.5817 25.7182 22.4002 28.8943 18.4775 28.8943H9.98339C5.13403 28.8943 1.24219 32.8105 1.24219 37.6209V158.745C1.24219 168.397 9.08765 176.229 18.7555 176.229H127.789C131.712 176.229 134.893 173.053 134.893 169.137V151.19C134.893 147.274 138.074 144.098 141.997 144.098H149.101V0.802612V0.833455Z" fill="white" stroke="#F5F5F5" stroke-miterlimit="10"/>
<g clip-path="url(#clip0_1115_20191)">
<path d="M64.5476 164.097H42.8789V175H64.5476V164.097Z" fill="#EEEBD0"/>
<path d="M42.9448 163.903H24.3906V175H42.9448V163.903Z" fill="#FFFDE8"/>
<path d="M33.6676 153L42.8784 164.097H24.3242L33.6676 153Z" fill="#FFFDE8"/>
<path d="M66.9993 166.044L43.1439 165.655L33.668 153H54.8728L66.9993 166.044Z" fill="#E6AA60"/>
<path d="M23 165.201L23.3976 167.018L34.6627 154.298L33.6687 153L23 165.201Z" fill="#E6AA60"/>
</g>
<defs>
<clipPath id="clip0_1115_20191">
<rect width="44" height="22" fill="white" transform="translate(23 153)"/>
</clipPath>
</defs>
</svg>
