<svg width="185" height="138" viewBox="0 0 185 138" fill="none" xmlns="http://www.w3.org/2000/svg">
<path d="M18.2867 1.40894H175.072C179.891 1.40894 183.814 5.32512 183.814 10.1355V137.489H0.773438V18.893C0.773438 9.2413 8.6189 1.40894 18.2867 1.40894Z" fill="white" stroke="#F5F5F5" stroke-miterlimit="10"/>
<g clip-path="url(#clip0_1115_20199)">
<path d="M31.5957 92.9621H27.5106L27.0638 77L26.4894 92.9621H22.3404C18.3191 92.9621 15 96.2429 15 100.218C15 103.372 17.1064 106.022 19.9787 107.032V137H34.0213V107.032C36.8936 106.022 39 103.372 39 100.218C39 96.2429 35.6809 92.9621 31.6596 92.9621H31.5957Z" fill="#D1EBF3"/>
<path d="M21.4483 97.694H17.5547V101.543H21.4483V97.694Z" fill="#ACD9C5"/>
<path d="M26.4249 97.694H22.5312V101.543H26.4249V97.694Z" fill="#ACD9C5"/>
<path d="M31.4053 97.694H27.5117V101.543H31.4053V97.694Z" fill="#ACD9C5"/>
<path d="M36.3819 97.694H32.4883V101.543H36.3819V97.694Z" fill="#ACD9C5"/>
<path d="M34.023 107.031H19.9805V108.987H34.023V107.031Z" fill="#ACD9C5"/>
</g>
<defs>
<clipPath id="clip0_1115_20199">
<rect width="24" height="60" fill="white" transform="translate(15 77)"/>
</clipPath>
</defs>
</svg>
