<svg width="16" height="16" viewBox="0 0 16 16" fill="none" xmlns="http://www.w3.org/2000/svg">
<path fill-rule="evenodd" clip-rule="evenodd" d="M7.9974 2.66663C6.52406 2.66663 5.33073 3.85996 5.33073 5.33329C5.33073 6.80663 6.52406 7.99996 7.9974 7.99996C9.47073 7.99996 10.6641 6.80663 10.6641 5.33329C10.6641 3.85996 9.47073 2.66663 7.9974 2.66663ZM9.33073 5.33329C9.33073 4.59996 8.73073 3.99996 7.9974 3.99996C7.26406 3.99996 6.66406 4.59996 6.66406 5.33329C6.66406 6.06663 7.26406 6.66663 7.9974 6.66663C8.73073 6.66663 9.33073 6.06663 9.33073 5.33329ZM11.9974 11.3333C11.8641 10.86 9.7974 9.99996 7.9974 9.99996C6.1974 9.99996 4.13073 10.86 3.9974 11.34V12H11.9974V11.3333ZM2.66406 11.3333C2.66406 9.55996 6.2174 8.66663 7.9974 8.66663C9.7774 8.66663 13.3307 9.55996 13.3307 11.3333V13.3333H2.66406V11.3333Z" fill="black"/>
</svg>
