<svg width="17" height="16" viewBox="0 0 17 16" fill="none" xmlns="http://www.w3.org/2000/svg">
<path d="M12.5465 8L12.039 8.86163L12.7946 9.3067L13.3345 8.61572L12.5465 8ZM10.5075 5.63837C10.0317 5.35807 9.41867 5.5166 9.13837 5.99246C8.85807 6.46833 9.0166 7.08133 9.49246 7.36163L10.5075 5.63837ZM15.288 6.11572C15.628 5.68053 15.5509 5.05208 15.1157 4.71203C14.6805 4.37198 14.0521 4.4491 13.712 4.88429L15.288 6.11572ZM11.7482 12.5439L12.5156 11.9027L11.2333 10.3679L10.4659 11.0091L11.7482 12.5439ZM7.52325 13L7.52326 12C5.29689 12 3.5 10.2048 3.5 8L2.5 8L1.5 8C1.5 11.3181 4.20108 14 7.52325 14L7.52325 13ZM2.5 8L3.5 8C3.5 5.79523 5.29689 4 7.52326 4L7.52326 3L7.52326 2C4.20108 2 1.5 4.68192 1.5 8L2.5 8ZM7.52326 3L7.52326 4C8.20138 4 9.24009 4.21069 10.0803 4.81282C10.8692 5.37823 11.5465 6.32788 11.5465 8L12.5465 8L13.5465 8C13.5465 5.67212 12.5494 4.12177 11.2453 3.18718C9.99247 2.28932 8.51955 2 7.52326 2L7.52326 3ZM12.5465 8L13.054 7.13837L10.5075 5.63837L10 6.5L9.49246 7.36163L12.039 8.86163L12.5465 8ZM12.5465 8L13.3345 8.61572L15.288 6.11572L14.5 5.5L13.712 4.88429L11.7585 7.38428L12.5465 8ZM7.52325 13L7.52325 14C8.45766 14 10.2364 13.807 11.7482 12.5439L11.107 11.7765L10.4659 11.0091C9.46811 11.8427 8.23961 12 7.52326 12L7.52325 13Z" fill="#999999"/>
</svg>
