<svg width="167" height="277" viewBox="0 0 167 277" fill="none" xmlns="http://www.w3.org/2000/svg">
<path d="M140.621 55.2585V1.32617H33.8119V120.076C33.8119 124.917 29.8892 128.803 25.0707 128.803H1.13281V272.16H153.44C160.513 272.16 166.227 266.424 166.227 259.393V76.7821C166.227 69.7206 160.482 64.0159 153.44 64.0159H149.394C144.544 64.0159 140.652 60.0998 140.652 55.2893L140.621 55.2585Z" fill="white" stroke="#F5F5F5" stroke-miterlimit="10"/>
<g clip-path="url(#clip0_1115_20349)">
<path d="M132.72 248.108C132.84 247.644 132.559 247.171 132.092 247.05C131.625 246.93 131.149 247.208 131.029 247.672L125.192 270.295C125.073 270.759 125.354 271.233 125.821 271.353C126.288 271.474 126.764 271.195 126.883 270.731L132.72 248.108Z" fill="#D7DBDA"/>
<path d="M112.567 249.448C115.059 239.788 125.107 234.019 134.995 236.571C144.884 239.122 150.886 249.032 148.394 258.692C148.394 258.692 142.37 255.973 140.249 255.426C137.87 254.812 132.888 254.691 130.48 254.07C128.073 253.449 123.475 251.247 121.031 250.646C118.968 250.114 112.567 249.448 112.567 249.448Z" fill="#E6917E"/>
<path d="M140.25 255.426C142.959 244.926 134.996 236.571 134.996 236.571C134.996 236.571 123.763 240.063 121.032 250.647C121.032 250.647 127.93 253.531 130.345 254.124C132.759 254.718 140.228 255.39 140.228 255.39L140.25 255.426Z" fill="#FFFDDE"/>
</g>
<defs>
<clipPath id="clip0_1115_20349">
<rect width="37" height="36" fill="white" transform="translate(117.082 231.949) rotate(14.4677)"/>
</clipPath>
</defs>
</svg>
