<svg width="30" height="30" viewBox="0 0 30 30" fill="none" xmlns="http://www.w3.org/2000/svg">
<path d="M19.5 16.457C23.3315 17.1553 26 18.7179 26 20.5334C26 23 21.0751 24.9995 15 24.9995C8.92487 24.9995 4 23 4 20.5334C4 18.7179 6.6685 17.1553 10.5 16.457" stroke="#999999" stroke-width="2" stroke-miterlimit="10"/>
<path d="M21.9988 11.084C21.9988 7.17101 18.7697 4 14.7885 4C10.8072 4 7.57812 7.17101 7.57812 11.084C7.57812 14.283 9.73554 16.985 12.6949 17.867L13.1633 18.658L14.3414 20.667C14.5401 21.003 15.0368 21.003 15.2355 20.667L16.4136 18.658L16.882 17.867C19.8414 16.985 21.9988 14.283 21.9988 11.084Z" stroke="#999999" stroke-width="2" stroke-miterlimit="10"/>
<path d="M14.7965 14.1287C16.3603 14.1287 17.6281 12.8813 17.6281 11.3426C17.6281 9.80398 16.3603 8.55664 14.7965 8.55664C13.2326 8.55664 11.9648 9.80398 11.9648 11.3426C11.9648 12.8813 13.2326 14.1287 14.7965 14.1287Z" stroke="#999999" stroke-width="2" stroke-miterlimit="10"/>
</svg>
