<svg width="16" height="16" viewBox="0 0 16 16" fill="none" xmlns="http://www.w3.org/2000/svg">
<path fill-rule="evenodd" clip-rule="evenodd" d="M1.33594 8.00004C1.33594 4.32004 4.31594 1.33337 7.99594 1.33337C11.6826 1.33337 14.6693 4.32004 14.6693 8.00004C14.6693 11.68 11.6826 14.6667 7.99594 14.6667C4.31594 14.6667 1.33594 11.68 1.33594 8.00004ZM10.6493 5.33337H12.6159C11.9759 4.23337 10.9559 3.38004 9.72927 2.96004C10.1293 3.70004 10.4359 4.50004 10.6493 5.33337ZM8.0026 2.69337C8.55594 3.49337 8.98927 4.38004 9.27594 5.33337H6.72927C7.01594 4.38004 7.44927 3.49337 8.0026 2.69337ZM2.66927 8.00004C2.66927 8.46004 2.73594 8.90671 2.8426 9.33337H5.09594C5.0426 8.89337 5.0026 8.45337 5.0026 8.00004C5.0026 7.54671 5.0426 7.10671 5.09594 6.66671H2.8426C2.73594 7.09337 2.66927 7.54004 2.66927 8.00004ZM3.38927 10.6667H5.35594C5.56927 11.5 5.87594 12.3 6.27594 13.04C5.04927 12.62 4.02927 11.7734 3.38927 10.6667ZM3.38927 5.33337H5.35594C5.56927 4.50004 5.87594 3.70004 6.27594 2.96004C5.04927 3.38004 4.02927 4.22671 3.38927 5.33337ZM8.0026 13.3067C7.44927 12.5067 7.01594 11.62 6.72927 10.6667H9.27594C8.98927 11.62 8.55594 12.5067 8.0026 13.3067ZM6.33594 8.00004C6.33594 8.45337 6.3826 8.89337 6.4426 9.33337H9.5626C9.6226 8.89337 9.66927 8.45337 9.66927 8.00004C9.66927 7.54671 9.6226 7.10004 9.5626 6.66671H6.4426C6.3826 7.10004 6.33594 7.54671 6.33594 8.00004ZM9.72927 13.04C10.1293 12.3 10.4359 11.5 10.6493 10.6667H12.6159C11.9759 11.7667 10.9559 12.62 9.72927 13.04ZM11.0026 8.00004C11.0026 8.45337 10.9626 8.89337 10.9093 9.33337H13.1626C13.2693 8.90671 13.3359 8.46004 13.3359 8.00004C13.3359 7.54004 13.2693 7.09337 13.1626 6.66671H10.9093C10.9626 7.10671 11.0026 7.54671 11.0026 8.00004Z" fill="black"/>
</svg>
