<svg width="16" height="16" viewBox="0 0 16 16" fill="none" xmlns="http://www.w3.org/2000/svg">
<path d="M8 8.66699C9.10457 8.66699 10 7.77156 10 6.66699C10 5.56242 9.10457 4.66699 8 4.66699C6.89543 4.66699 6 5.56242 6 6.66699C6 7.77156 6.89543 8.66699 8 8.66699Z" stroke="#767676" stroke-width="1.5" stroke-miterlimit="10" stroke-linecap="round"/>
<path d="M14 6.91886C14 3.83445 11.3155 1.33398 8.00402 1.33398C4.69257 1.33398 2 3.83445 2 6.91886C2 9.44179 3.79236 11.5754 6.25988 12.2642L6.64568 12.8855L7.62626 14.4652C7.79504 14.7347 8.20496 14.7347 8.36571 14.4652L9.34628 12.8855L9.73208 12.2642C12.1996 11.5679 13.992 9.44179 13.992 6.91886H14Z" stroke="#767676" stroke-width="1.5" stroke-miterlimit="10"/>
</svg>
