<svg width="21" height="17" viewBox="0 0 21 17" fill="none" xmlns="http://www.w3.org/2000/svg">
<g clip-path="url(#clip0_606_39287)">
<path d="M16.1107 3.1731L14.4616 1.09719C14.2269 0.797964 13.8686 0.623413 13.4857 0.623413H7.4945C7.11774 0.623413 6.7595 0.797964 6.51862 1.09719L4.8695 3.1731C4.6348 3.47233 4.27656 3.64688 3.89362 3.64688H1.84921C1.15744 3.64688 0.601562 4.20794 0.601562 4.90614V15.1236C0.601562 15.8218 1.15744 16.3829 1.84921 16.3829H19.1186C19.8104 16.3829 20.3663 15.8218 20.3663 15.1236V4.90614C20.3663 4.20794 19.8104 3.64688 19.1186 3.64688H17.0742C16.6974 3.64688 16.3392 3.47233 16.0983 3.1731H16.1107Z" fill="#656565"/>
<path d="M10.501 12.7359C12.4863 12.7359 14.0957 11.1116 14.0957 9.10778C14.0957 7.104 12.4863 5.47961 10.501 5.47961C8.51565 5.47961 6.90625 7.104 6.90625 9.10778C6.90625 11.1116 8.51565 12.7359 10.501 12.7359Z" fill="#656565" stroke="white" stroke-width="2" stroke-linejoin="round"/>
</g>
<defs>
<clipPath id="clip0_606_39287">
<rect width="21" height="17" fill="white"/>
</clipPath>
</defs>
</svg>
